<svg xmlns="http://www.w3.org/2000/svg" width="285" height="2" fill="none"><path fill="#999" d="M.4 1.17C.4.97.45.83.54.72.63.62.76.57.94.57c.17 0 .3.05.4.15.1.1.14.25.14.45s-.05.35-.14.45c-.1.1-.23.16-.4.16s-.3-.05-.4-.16a.66.66 0 0 1-.14-.45Zm4.88 0c0-.2.05-.34.14-.45.09-.1.22-.15.4-.15.17 0 .3.05.4.15.1.1.14.25.14.45s-.05.35-.14.45c-.1.1-.23.16-.4.16s-.3-.05-.4-.16a.66.66 0 0 1-.14-.45Zm4.88 0c0-.2.05-.34.14-.45.09-.1.22-.15.4-.15.17 0 .3.05.4.15.1.1.14.25.14.45s-.05.35-.14.45c-.1.1-.23.16-.4.16s-.3-.05-.4-.16a.66.66 0 0 1-.14-.45Zm4.88 0c0-.2.05-.34.14-.45.09-.1.22-.15.4-.15.17 0 .3.05.4.15.1.1.14.25.14.45s-.05.35-.14.45c-.1.1-.23.16-.4.16s-.3-.05-.4-.16a.66.66 0 0 1-.14-.45Zm4.88 0c0-.2.05-.34.14-.45.09-.1.22-.15.4-.15.17 0 .3.05.4.15.1.1.14.25.14.45s-.05.35-.14.45c-.1.1-.23.16-.4.16s-.3-.05-.4-.16a.66.66 0 0 1-.14-.45Zm4.88 0c0-.2.05-.34.14-.45.09-.1.22-.15.4-.15.17 0 .3.05.4.15.1.1.14.25.14.45s-.05.35-.14.45c-.1.1-.23.16-.4.16s-.3-.05-.4-.16a.66.66 0 0 1-.14-.45Zm4.88 0c0-.2.05-.34.14-.45.09-.1.22-.15.4-.15.17 0 .3.05.4.15.1.1.14.25.14.45s-.05.35-.14.45c-.1.1-.23.16-.4.16s-.3-.05-.4-.16a.66.66 0 0 1-.14-.45Zm4.88 0c0-.2.05-.34.14-.45.09-.1.22-.15.4-.15.17 0 .3.05.4.15.1.1.14.25.14.45s-.05.35-.14.45c-.1.1-.23.16-.4.16-.18 0-.3-.05-.4-.16a.66.66 0 0 1-.14-.45Zm4.88 0c0-.2.05-.34.14-.45.09-.1.22-.15.4-.15.17 0 .3.05.4.15.1.1.14.25.14.45s-.05.35-.14.45c-.1.1-.23.16-.4.16-.18 0-.3-.05-.4-.16a.66.66 0 0 1-.14-.45Zm4.88 0c0-.2.04-.34.14-.45.09-.1.22-.15.4-.15.17 0 .3.05.4.15.1.1.14.25.14.45s-.05.35-.14.45c-.1.1-.23.16-.4.16-.18 0-.3-.05-.4-.16a.66.66 0 0 1-.14-.45Zm4.88 0c0-.2.04-.34.14-.45.09-.1.22-.15.4-.15.17 0 .3.05.4.15.1.1.14.25.14.45s-.05.35-.14.45c-.1.1-.23.16-.4.16-.18 0-.3-.05-.4-.16a.66.66 0 0 1-.14-.45Zm4.88 0c0-.2.04-.34.14-.45.09-.1.22-.15.4-.15.17 0 .3.05.4.15.1.1.14.25.14.45s-.05.35-.14.45c-.1.1-.23.16-.4.16-.18 0-.3-.05-.4-.16a.66.66 0 0 1-.14-.45Zm4.88 0c0-.2.04-.34.14-.45.09-.1.22-.15.4-.15.17 0 .3.05.4.15.1.1.14.25.14.45s-.05.35-.14.45c-.1.1-.23.16-.4.16-.18 0-.3-.05-.4-.16a.66.66 0 0 1-.14-.45Zm4.88 0c0-.2.04-.34.14-.45.09-.1.22-.15.4-.15.17 0 .3.05.4.15.1.1.14.25.14.45s-.05.35-.14.45c-.1.1-.23.16-.4.16-.18 0-.3-.05-.4-.16a.66.66 0 0 1-.14-.45Zm4.88 0c0-.2.04-.34.14-.45.09-.1.22-.15.4-.15.17 0 .3.05.4.15.1.1.14.25.14.45s-.05.35-.14.45c-.1.1-.23.16-.4.16-.18 0-.3-.05-.4-.16a.66.66 0 0 1-.14-.45Zm4.88 0c0-.2.04-.34.14-.45.09-.1.22-.15.4-.15.17 0 .3.05.4.15.09.1.14.25.14.45s-.05.35-.14.45c-.1.1-.23.16-.4.16-.18 0-.3-.05-.4-.16a.66.66 0 0 1-.14-.45Zm4.88 0c0-.2.04-.34.14-.45.09-.1.22-.15.4-.15.17 0 .3.05.4.15.09.1.14.25.14.45s-.05.35-.14.45c-.1.1-.23.16-.4.16-.18 0-.31-.05-.4-.16a.66.66 0 0 1-.14-.45Zm4.88 0c0-.2.04-.34.14-.45.09-.1.22-.15.4-.15.17 0 .3.05.4.15.09.1.14.25.14.45s-.05.35-.14.45c-.1.1-.23.16-.4.16-.18 0-.31-.05-.4-.16a.66.66 0 0 1-.14-.45Zm4.88 0c0-.2.04-.34.14-.45.09-.1.22-.15.4-.15.17 0 .3.05.4.15.09.1.14.25.14.45s-.05.35-.14.45c-.1.1-.23.16-.4.16-.18 0-.31-.05-.4-.16a.66.66 0 0 1-.14-.45Zm4.88 0c0-.2.04-.34.13-.45.1-.1.23-.15.4-.15.18 0 .31.05.4.15.1.1.15.25.15.45s-.05.35-.14.45c-.1.1-.23.16-.4.16-.18 0-.31-.05-.4-.16a.66.66 0 0 1-.14-.45Zm4.88 0c0-.2.04-.34.13-.45.1-.1.23-.15.4-.15.18 0 .31.05.4.15.1.1.15.25.15.45s-.05.35-.14.45c-.1.1-.23.16-.4.16-.18 0-.31-.05-.4-.16a.66.66 0 0 1-.14-.45Zm4.88 0c0-.2.04-.34.14-.45.09-.1.22-.15.4-.15.17 0 .3.05.4.15.09.1.14.25.14.45s-.05.35-.14.45c-.1.1-.23.16-.4.16-.18 0-.31-.05-.4-.16a.66.66 0 0 1-.14-.45Zm4.88 0c0-.2.04-.34.13-.45.1-.1.23-.15.4-.15.18 0 .31.05.4.15.1.1.15.25.15.45s-.05.35-.15.45c-.09.1-.22.16-.4.16-.17 0-.3-.05-.4-.16a.66.66 0 0 1-.13-.45Zm4.88 0c0-.2.04-.34.13-.45.1-.1.23-.15.4-.15.18 0 .31.05.4.15.1.1.15.25.15.45s-.05.35-.14.45c-.1.1-.23.16-.4.16-.18 0-.31-.05-.4-.16a.66.66 0 0 1-.14-.45Zm4.88 0c0-.2.04-.34.13-.45.1-.1.23-.15.4-.15.18 0 .31.05.4.15.1.1.15.25.15.45s-.05.35-.14.45c-.1.1-.23.16-.4.16-.18 0-.31-.05-.4-.16a.66.66 0 0 1-.14-.45Zm4.88 0c0-.2.04-.34.13-.45.1-.1.23-.15.4-.15.18 0 .31.05.4.15.1.1.15.25.15.45s-.05.35-.15.45c-.09.1-.22.16-.4.16-.17 0-.3-.05-.4-.16a.66.66 0 0 1-.13-.45Zm4.88 0c0-.2.04-.34.13-.45.1-.1.23-.15.4-.15.18 0 .31.05.4.15.1.1.15.25.15.45s-.05.35-.15.45c-.09.1-.22.16-.4.16-.17 0-.3-.05-.4-.16a.66.66 0 0 1-.13-.45Zm4.88 0c0-.2.04-.34.13-.45.1-.1.23-.15.4-.15.18 0 .31.05.4.15.1.1.15.25.15.45s-.05.35-.15.45c-.09.1-.22.16-.4.16-.17 0-.3-.05-.4-.16a.67.67 0 0 1-.13-.45Zm4.88 0c0-.2.04-.34.13-.45.1-.1.23-.15.4-.15.18 0 .31.05.4.15.1.1.15.25.15.45s-.05.35-.15.45c-.09.1-.22.16-.4.16-.17 0-.3-.05-.4-.16a.66.66 0 0 1-.13-.45Zm4.88 0c0-.2.04-.34.13-.45.1-.1.23-.15.4-.15.18 0 .31.05.4.15.1.1.15.25.15.45s-.05.35-.15.45c-.09.1-.22.16-.4.16-.17 0-.3-.05-.4-.16a.66.66 0 0 1-.13-.45Zm4.88 0c0-.2.04-.34.13-.45.1-.1.23-.15.4-.15.18 0 .31.05.4.15.1.1.15.25.15.45s-.05.35-.15.45c-.09.1-.22.16-.4.16-.17 0-.3-.05-.4-.16a.66.66 0 0 1-.13-.45Zm4.88 0c0-.2.04-.34.13-.45.1-.1.23-.15.4-.15.18 0 .31.05.4.15.1.1.15.25.15.45s-.05.35-.15.45c-.09.1-.22.16-.4.16-.17 0-.3-.05-.4-.16a.66.66 0 0 1-.13-.45Zm4.88 0c0-.2.04-.34.13-.45.1-.1.23-.15.4-.15.18 0 .31.05.4.15.1.1.15.25.15.45s-.05.35-.15.45c-.09.1-.22.16-.4.16-.17 0-.3-.05-.4-.16a.66.66 0 0 1-.13-.45Zm4.88 0c0-.2.04-.34.13-.45.1-.1.23-.15.4-.15.18 0 .31.05.4.15.1.1.15.25.15.45s-.05.35-.15.45c-.09.1-.22.16-.4.16-.17 0-.3-.05-.4-.16a.66.66 0 0 1-.13-.45Zm4.88 0c0-.2.04-.34.13-.45.1-.1.23-.15.4-.15.18 0 .31.05.4.15.1.1.15.25.15.45s-.05.35-.15.45c-.09.1-.22.16-.4.16-.17 0-.3-.05-.4-.16a.66.66 0 0 1-.13-.45Zm4.88 0c0-.2.04-.34.13-.45.1-.1.23-.15.4-.15.18 0 .3.05.4.15.1.1.15.25.15.45s-.05.35-.15.45c-.09.1-.22.16-.4.16-.17 0-.3-.05-.4-.16a.67.67 0 0 1-.13-.45Zm4.88 0c0-.2.04-.34.13-.45.1-.1.23-.15.4-.15.18 0 .3.05.4.15.1.1.15.25.15.45s-.05.35-.15.45c-.09.1-.22.16-.4.16-.17 0-.3-.05-.4-.16a.67.67 0 0 1-.13-.45Zm4.88 0c0-.2.04-.34.13-.45.1-.1.23-.15.4-.15.18 0 .3.05.4.15.1.1.15.25.15.45s-.05.35-.15.45c-.09.1-.22.16-.4.16-.17 0-.3-.05-.4-.16a.66.66 0 0 1-.13-.45Zm4.88 0c0-.2.04-.34.13-.45.1-.1.23-.15.4-.15.18 0 .3.05.4.15.1.1.14.25.14.45s-.04.35-.14.45c-.09.1-.22.16-.4.16-.17 0-.3-.05-.4-.16a.66.66 0 0 1-.13-.45Zm4.88 0c0-.2.04-.34.13-.45.1-.1.23-.15.4-.15.18 0 .3.05.4.15.1.1.14.25.14.45s-.04.35-.14.45c-.09.1-.22.16-.4.16-.17 0-.3-.05-.4-.16a.66.66 0 0 1-.13-.45Zm4.88 0c0-.2.04-.34.13-.45.1-.1.23-.15.4-.15.18 0 .3.05.4.15.1.1.15.25.15.45s-.05.35-.15.45c-.09.1-.22.16-.4.16-.17 0-.3-.05-.4-.16a.66.66 0 0 1-.13-.45Zm4.88 0c0-.2.04-.34.13-.45.1-.1.23-.15.4-.15.18 0 .3.05.4.15.1.1.15.25.15.45s-.05.35-.15.45c-.09.1-.22.16-.4.16-.17 0-.3-.05-.4-.16a.66.66 0 0 1-.13-.45Zm4.88 0c0-.2.04-.34.13-.45.1-.1.23-.15.4-.15.18 0 .3.05.4.15.1.1.15.25.15.45s-.05.35-.15.45c-.09.1-.22.16-.4.16-.17 0-.3-.05-.4-.16a.66.66 0 0 1-.14-.45Zm4.88 0c0-.2.04-.34.13-.45.1-.1.23-.15.4-.15.18 0 .3.05.4.15.1.1.14.25.14.45s-.04.35-.14.45c-.09.1-.22.16-.4.16-.17 0-.3-.05-.4-.16a.66.66 0 0 1-.13-.45Zm4.88 0c0-.2.04-.34.13-.45.1-.1.23-.15.4-.15.18 0 .3.05.4.15.1.1.14.25.14.45s-.04.35-.14.45c-.09.1-.22.16-.4.16-.17 0-.3-.05-.4-.16a.67.67 0 0 1-.13-.45Zm4.88 0c0-.2.04-.34.13-.45.1-.1.23-.15.4-.15.18 0 .3.05.4.15.1.1.14.25.14.45s-.04.35-.14.45c-.09.1-.22.16-.4.16-.17 0-.3-.05-.4-.16a.67.67 0 0 1-.13-.45Zm4.88 0c0-.2.04-.34.13-.45.1-.1.23-.15.4-.15.18 0 .3.05.4.15.1.1.14.25.14.45s-.04.35-.14.45c-.09.1-.22.16-.4.16-.17 0-.3-.05-.4-.16a.66.66 0 0 1-.13-.45Zm4.88 0c0-.2.04-.34.13-.45.1-.1.23-.15.4-.15.18 0 .3.05.4.15.1.1.14.25.14.45s-.04.35-.14.45c-.09.1-.22.16-.4.16-.17 0-.3-.05-.4-.16a.66.66 0 0 1-.13-.45Zm4.88 0c0-.2.04-.34.13-.45.1-.1.23-.15.4-.15.18 0 .3.05.4.15.1.1.14.25.14.45s-.04.35-.14.45c-.1.1-.22.16-.4.16-.17 0-.3-.05-.4-.16a.66.66 0 0 1-.14-.45Zm4.88 0c0-.2.04-.34.13-.45.1-.1.23-.15.4-.15s.3.05.4.15c.1.1.14.25.14.45s-.04.35-.14.45c-.1.1-.22.16-.4.16-.17 0-.3-.05-.4-.16a.66.66 0 0 1-.14-.45Zm4.88 0c0-.2.04-.34.13-.45.1-.1.23-.15.4-.15s.3.05.4.15c.1.1.14.25.14.45s-.04.35-.14.45c-.1.1-.22.16-.4.16-.17 0-.3-.05-.4-.16a.66.66 0 0 1-.13-.45Zm4.87 0c0-.2.05-.34.14-.45.1-.1.23-.15.4-.15.18 0 .3.05.4.15.1.1.14.25.14.45s-.04.35-.14.45c-.1.1-.22.16-.4.16-.17 0-.3-.05-.4-.16a.66.66 0 0 1-.14-.45Zm4.88 0c0-.2.05-.34.14-.45.1-.1.23-.15.4-.15.18 0 .3.05.4.15.1.1.14.25.14.45s-.04.35-.14.45c-.1.1-.22.16-.4.16-.17 0-.3-.05-.4-.16a.67.67 0 0 1-.14-.45Zm4.88 0c0-.2.05-.34.14-.45.1-.1.23-.15.4-.15.18 0 .3.05.4.15.1.1.14.25.14.45s-.04.35-.14.45c-.1.1-.22.16-.4.16-.17 0-.3-.05-.4-.16a.67.67 0 0 1-.14-.45Zm4.88 0c0-.2.05-.34.14-.45.1-.1.23-.15.4-.15.18 0 .3.05.4.15.1.1.14.25.14.45s-.04.35-.14.45c-.1.1-.22.16-.4.16-.17 0-.3-.05-.4-.16a.66.66 0 0 1-.14-.45Zm4.88 0c0-.2.05-.34.14-.45.1-.1.23-.15.4-.15s.3.05.4.15c.1.1.14.25.14.45s-.04.35-.14.45c-.1.1-.22.16-.4.16-.17 0-.3-.05-.4-.16a.66.66 0 0 1-.14-.45Zm4.88 0c0-.2.05-.34.14-.45.1-.1.23-.15.4-.15s.3.05.4.15c.1.1.14.25.14.45s-.04.35-.14.45c-.1.1-.22.16-.4.16-.17 0-.3-.05-.4-.16a.66.66 0 0 1-.14-.45Zm4.88 0c0-.2.05-.34.14-.45.1-.1.23-.15.4-.15s.3.05.4.15c.1.1.14.25.14.45s-.04.35-.14.45c-.1.1-.22.16-.4.16-.17 0-.3-.05-.4-.16a.66.66 0 0 1-.14-.45Zm4.88 0c0-.2.05-.34.14-.45.1-.1.23-.15.4-.15s.3.05.4.15c.1.1.14.25.14.45s-.05.35-.14.45c-.1.1-.22.16-.4.16-.17 0-.3-.05-.4-.16a.66.66 0 0 1-.14-.45ZM.4 1.17C.4.97.45.83.54.72.63.62.76.57.94.57c.17 0 .3.05.4.15.1.1.14.25.14.45s-.05.35-.14.45c-.1.1-.23.16-.4.16s-.3-.05-.4-.16a.66.66 0 0 1-.14-.45Zm4.88 0c0-.2.05-.34.14-.45.09-.1.22-.15.4-.15.17 0 .3.05.4.15.1.1.14.25.14.45s-.05.35-.14.45c-.1.1-.23.16-.4.16s-.3-.05-.4-.16a.66.66 0 0 1-.14-.45Zm4.88 0c0-.2.05-.34.14-.45.09-.1.22-.15.4-.15.17 0 .3.05.4.15.1.1.14.25.14.45s-.05.35-.14.45c-.1.1-.23.16-.4.16s-.3-.05-.4-.16a.66.66 0 0 1-.14-.45Zm4.88 0c0-.2.05-.34.14-.45.09-.1.22-.15.4-.15.17 0 .3.05.4.15.1.1.14.25.14.45s-.05.35-.14.45c-.1.1-.23.16-.4.16s-.3-.05-.4-.16a.66.66 0 0 1-.14-.45Zm4.88 0c0-.2.05-.34.14-.45.09-.1.22-.15.4-.15.17 0 .3.05.4.15.1.1.14.25.14.45s-.05.35-.14.45c-.1.1-.23.16-.4.16s-.3-.05-.4-.16a.66.66 0 0 1-.14-.45Zm4.88 0c0-.2.05-.34.14-.45.09-.1.22-.15.4-.15.17 0 .3.05.4.15.1.1.14.25.14.45s-.05.35-.14.45c-.1.1-.23.16-.4.16s-.3-.05-.4-.16a.66.66 0 0 1-.14-.45Zm4.88 0c0-.2.05-.34.14-.45.09-.1.22-.15.4-.15.17 0 .3.05.4.15.1.1.14.25.14.45s-.05.35-.14.45c-.1.1-.23.16-.4.16s-.3-.05-.4-.16a.66.66 0 0 1-.14-.45Zm4.88 0c0-.2.05-.34.14-.45.09-.1.22-.15.4-.15.17 0 .3.05.4.15.1.1.14.25.14.45s-.05.35-.14.45c-.1.1-.23.16-.4.16-.18 0-.3-.05-.4-.16a.66.66 0 0 1-.14-.45Zm4.88 0c0-.2.05-.34.14-.45.09-.1.22-.15.4-.15.17 0 .3.05.4.15.1.1.14.25.14.45s-.05.35-.14.45c-.1.1-.23.16-.4.16-.18 0-.3-.05-.4-.16a.66.66 0 0 1-.14-.45Zm4.88 0c0-.2.04-.34.14-.45.09-.1.22-.15.4-.15.17 0 .3.05.4.15.1.1.14.25.14.45s-.05.35-.14.45c-.1.1-.23.16-.4.16-.18 0-.3-.05-.4-.16a.66.66 0 0 1-.14-.45Zm4.88 0c0-.2.04-.34.14-.45.09-.1.22-.15.4-.15.17 0 .3.05.4.15.1.1.14.25.14.45s-.05.35-.14.45c-.1.1-.23.16-.4.16-.18 0-.3-.05-.4-.16a.66.66 0 0 1-.14-.45Zm4.88 0c0-.2.04-.34.14-.45.09-.1.22-.15.4-.15.17 0 .3.05.4.15.1.1.14.25.14.45s-.05.35-.14.45c-.1.1-.23.16-.4.16-.18 0-.3-.05-.4-.16a.66.66 0 0 1-.14-.45Zm4.88 0c0-.2.04-.34.14-.45.09-.1.22-.15.4-.15.17 0 .3.05.4.15.1.1.14.25.14.45s-.05.35-.14.45c-.1.1-.23.16-.4.16-.18 0-.3-.05-.4-.16a.66.66 0 0 1-.14-.45Zm4.88 0c0-.2.04-.34.14-.45.09-.1.22-.15.4-.15.17 0 .3.05.4.15.1.1.14.25.14.45s-.05.35-.14.45c-.1.1-.23.16-.4.16-.18 0-.3-.05-.4-.16a.66.66 0 0 1-.14-.45Zm4.88 0c0-.2.04-.34.14-.45.09-.1.22-.15.4-.15.17 0 .3.05.4.15.1.1.14.25.14.45s-.05.35-.14.45c-.1.1-.23.16-.4.16-.18 0-.3-.05-.4-.16a.66.66 0 0 1-.14-.45Zm4.88 0c0-.2.04-.34.14-.45.09-.1.22-.15.4-.15.17 0 .3.05.4.15.09.1.14.25.14.45s-.05.35-.14.45c-.1.1-.23.16-.4.16-.18 0-.3-.05-.4-.16a.66.66 0 0 1-.14-.45Zm4.88 0c0-.2.04-.34.14-.45.09-.1.22-.15.4-.15.17 0 .3.05.4.15.09.1.14.25.14.45s-.05.35-.14.45c-.1.1-.23.16-.4.16-.18 0-.31-.05-.4-.16a.66.66 0 0 1-.14-.45Zm4.88 0c0-.2.04-.34.14-.45.09-.1.22-.15.4-.15.17 0 .3.05.4.15.09.1.14.25.14.45s-.05.35-.14.45c-.1.1-.23.16-.4.16-.18 0-.31-.05-.4-.16a.66.66 0 0 1-.14-.45Zm4.88 0c0-.2.04-.34.14-.45.09-.1.22-.15.4-.15.17 0 .3.05.4.15.09.1.14.25.14.45s-.05.35-.14.45c-.1.1-.23.16-.4.16-.18 0-.31-.05-.4-.16a.66.66 0 0 1-.14-.45Zm4.88 0c0-.2.04-.34.13-.45.1-.1.23-.15.4-.15.18 0 .31.05.4.15.1.1.15.25.15.45s-.05.35-.14.45c-.1.1-.23.16-.4.16-.18 0-.31-.05-.4-.16a.66.66 0 0 1-.14-.45Zm4.88 0c0-.2.04-.34.13-.45.1-.1.23-.15.4-.15.18 0 .31.05.4.15.1.1.15.25.15.45s-.05.35-.14.45c-.1.1-.23.16-.4.16-.18 0-.31-.05-.4-.16a.66.66 0 0 1-.14-.45Zm4.88 0c0-.2.04-.34.14-.45.09-.1.22-.15.4-.15.17 0 .3.05.4.15.09.1.14.25.14.45s-.05.35-.14.45c-.1.1-.23.16-.4.16-.18 0-.31-.05-.4-.16a.66.66 0 0 1-.14-.45Zm4.88 0c0-.2.04-.34.13-.45.1-.1.23-.15.4-.15.18 0 .31.05.4.15.1.1.15.25.15.45s-.05.35-.15.45c-.09.1-.22.16-.4.16-.17 0-.3-.05-.4-.16a.66.66 0 0 1-.13-.45Zm4.88 0c0-.2.04-.34.13-.45.1-.1.23-.15.4-.15.18 0 .31.05.4.15.1.1.15.25.15.45s-.05.35-.14.45c-.1.1-.23.16-.4.16-.18 0-.31-.05-.4-.16a.66.66 0 0 1-.14-.45Zm4.88 0c0-.2.04-.34.13-.45.1-.1.23-.15.4-.15.18 0 .31.05.4.15.1.1.15.25.15.45s-.05.35-.14.45c-.1.1-.23.16-.4.16-.18 0-.31-.05-.4-.16a.66.66 0 0 1-.14-.45Zm4.88 0c0-.2.04-.34.13-.45.1-.1.23-.15.4-.15.18 0 .31.05.4.15.1.1.15.25.15.45s-.05.35-.15.45c-.09.1-.22.16-.4.16-.17 0-.3-.05-.4-.16a.66.66 0 0 1-.13-.45Zm4.88 0c0-.2.04-.34.13-.45.1-.1.23-.15.4-.15.18 0 .31.05.4.15.1.1.15.25.15.45s-.05.35-.15.45c-.09.1-.22.16-.4.16-.17 0-.3-.05-.4-.16a.66.66 0 0 1-.13-.45Zm4.88 0c0-.2.04-.34.13-.45.1-.1.23-.15.4-.15.18 0 .31.05.4.15.1.1.15.25.15.45s-.05.35-.15.45c-.09.1-.22.16-.4.16-.17 0-.3-.05-.4-.16a.67.67 0 0 1-.13-.45Zm4.88 0c0-.2.04-.34.13-.45.1-.1.23-.15.4-.15.18 0 .31.05.4.15.1.1.15.25.15.45s-.05.35-.15.45c-.09.1-.22.16-.4.16-.17 0-.3-.05-.4-.16a.66.66 0 0 1-.13-.45Zm4.88 0c0-.2.04-.34.13-.45.1-.1.23-.15.4-.15.18 0 .31.05.4.15.1.1.15.25.15.45s-.05.35-.15.45c-.09.1-.22.16-.4.16-.17 0-.3-.05-.4-.16a.66.66 0 0 1-.13-.45Zm4.88 0c0-.2.04-.34.13-.45.1-.1.23-.15.4-.15.18 0 .31.05.4.15.1.1.15.25.15.45s-.05.35-.15.45c-.09.1-.22.16-.4.16-.17 0-.3-.05-.4-.16a.66.66 0 0 1-.13-.45Zm4.88 0c0-.2.04-.34.13-.45.1-.1.23-.15.4-.15.18 0 .31.05.4.15.1.1.15.25.15.45s-.05.35-.15.45c-.09.1-.22.16-.4.16-.17 0-.3-.05-.4-.16a.66.66 0 0 1-.13-.45Zm4.88 0c0-.2.04-.34.13-.45.1-.1.23-.15.4-.15.18 0 .31.05.4.15.1.1.15.25.15.45s-.05.35-.15.45c-.09.1-.22.16-.4.16-.17 0-.3-.05-.4-.16a.66.66 0 0 1-.13-.45Zm4.88 0c0-.2.04-.34.13-.45.1-.1.23-.15.4-.15.18 0 .31.05.4.15.1.1.15.25.15.45s-.05.35-.15.45c-.09.1-.22.16-.4.16-.17 0-.3-.05-.4-.16a.66.66 0 0 1-.13-.45Zm4.88 0c0-.2.04-.34.13-.45.1-.1.23-.15.4-.15.18 0 .31.05.4.15.1.1.15.25.15.45s-.05.35-.15.45c-.09.1-.22.16-.4.16-.17 0-.3-.05-.4-.16a.66.66 0 0 1-.13-.45Zm4.88 0c0-.2.04-.34.13-.45.1-.1.23-.15.4-.15.18 0 .3.05.4.15.1.1.15.25.15.45s-.05.35-.15.45c-.09.1-.22.16-.4.16-.17 0-.3-.05-.4-.16a.67.67 0 0 1-.13-.45Zm4.88 0c0-.2.04-.34.13-.45.1-.1.23-.15.4-.15.18 0 .3.05.4.15.1.1.15.25.15.45s-.05.35-.15.45c-.09.1-.22.16-.4.16-.17 0-.3-.05-.4-.16a.67.67 0 0 1-.13-.45Zm4.88 0c0-.2.04-.34.13-.45.1-.1.23-.15.4-.15.18 0 .3.05.4.15.1.1.15.25.15.45s-.05.35-.15.45c-.09.1-.22.16-.4.16-.17 0-.3-.05-.4-.16a.66.66 0 0 1-.13-.45Zm4.88 0c0-.2.04-.34.13-.45.1-.1.23-.15.4-.15.18 0 .3.05.4.15.1.1.14.25.14.45s-.04.35-.14.45c-.09.1-.22.16-.4.16-.17 0-.3-.05-.4-.16a.66.66 0 0 1-.13-.45Zm4.88 0c0-.2.04-.34.13-.45.1-.1.23-.15.4-.15.18 0 .3.05.4.15.1.1.14.25.14.45s-.04.35-.14.45c-.09.1-.22.16-.4.16-.17 0-.3-.05-.4-.16a.66.66 0 0 1-.13-.45Zm4.88 0c0-.2.04-.34.13-.45.1-.1.23-.15.4-.15.18 0 .3.05.4.15.1.1.15.25.15.45s-.05.35-.15.45c-.09.1-.22.16-.4.16-.17 0-.3-.05-.4-.16a.66.66 0 0 1-.13-.45Zm4.88 0c0-.2.04-.34.13-.45.1-.1.23-.15.4-.15.18 0 .3.05.4.15.1.1.15.25.15.45s-.05.35-.15.45c-.09.1-.22.16-.4.16-.17 0-.3-.05-.4-.16a.66.66 0 0 1-.13-.45Zm4.88 0c0-.2.04-.34.13-.45.1-.1.23-.15.4-.15.18 0 .3.05.4.15.1.1.15.25.15.45s-.05.35-.15.45c-.09.1-.22.16-.4.16-.17 0-.3-.05-.4-.16a.66.66 0 0 1-.14-.45Zm4.88 0c0-.2.04-.34.13-.45.1-.1.23-.15.4-.15.18 0 .3.05.4.15.1.1.14.25.14.45s-.04.35-.14.45c-.09.1-.22.16-.4.16-.17 0-.3-.05-.4-.16a.66.66 0 0 1-.13-.45Zm4.88 0c0-.2.04-.34.13-.45.1-.1.23-.15.4-.15.18 0 .3.05.4.15.1.1.14.25.14.45s-.04.35-.14.45c-.09.1-.22.16-.4.16-.17 0-.3-.05-.4-.16a.67.67 0 0 1-.13-.45Zm4.88 0c0-.2.04-.34.13-.45.1-.1.23-.15.4-.15.18 0 .3.05.4.15.1.1.14.25.14.45s-.04.35-.14.45c-.09.1-.22.16-.4.16-.17 0-.3-.05-.4-.16a.67.67 0 0 1-.13-.45Zm4.88 0c0-.2.04-.34.13-.45.1-.1.23-.15.4-.15.18 0 .3.05.4.15.1.1.14.25.14.45s-.04.35-.14.45c-.09.1-.22.16-.4.16-.17 0-.3-.05-.4-.16a.66.66 0 0 1-.13-.45Zm4.88 0c0-.2.04-.34.13-.45.1-.1.23-.15.4-.15.18 0 .3.05.4.15.1.1.14.25.14.45s-.04.35-.14.45c-.09.1-.22.16-.4.16-.17 0-.3-.05-.4-.16a.66.66 0 0 1-.13-.45Zm4.88 0c0-.2.04-.34.13-.45.1-.1.23-.15.4-.15.18 0 .3.05.4.15.1.1.14.25.14.45s-.04.35-.14.45c-.1.1-.22.16-.4.16-.17 0-.3-.05-.4-.16a.66.66 0 0 1-.14-.45Zm4.88 0c0-.2.04-.34.13-.45.1-.1.23-.15.4-.15s.3.05.4.15c.1.1.14.25.14.45s-.04.35-.14.45c-.1.1-.22.16-.4.16-.17 0-.3-.05-.4-.16a.66.66 0 0 1-.14-.45Zm4.88 0c0-.2.04-.34.13-.45.1-.1.23-.15.4-.15s.3.05.4.15c.1.1.14.25.14.45s-.04.35-.14.45c-.1.1-.22.16-.4.16-.17 0-.3-.05-.4-.16a.66.66 0 0 1-.13-.45Zm4.87 0c0-.2.05-.34.14-.45.1-.1.23-.15.4-.15.18 0 .3.05.4.15.1.1.14.25.14.45s-.04.35-.14.45c-.1.1-.22.16-.4.16-.17 0-.3-.05-.4-.16a.66.66 0 0 1-.14-.45Zm4.88 0c0-.2.05-.34.14-.45.1-.1.23-.15.4-.15.18 0 .3.05.4.15.1.1.14.25.14.45s-.04.35-.14.45c-.1.1-.22.16-.4.16-.17 0-.3-.05-.4-.16a.67.67 0 0 1-.14-.45Zm4.88 0c0-.2.05-.34.14-.45.1-.1.23-.15.4-.15.18 0 .3.05.4.15.1.1.14.25.14.45s-.04.35-.14.45c-.1.1-.22.16-.4.16-.17 0-.3-.05-.4-.16a.67.67 0 0 1-.14-.45Zm4.88 0c0-.2.05-.34.14-.45.1-.1.23-.15.4-.15.18 0 .3.05.4.15.1.1.14.25.14.45s-.04.35-.14.45c-.1.1-.22.16-.4.16-.17 0-.3-.05-.4-.16a.66.66 0 0 1-.14-.45Zm4.88 0c0-.2.05-.34.14-.45.1-.1.23-.15.4-.15s.3.05.4.15c.1.1.14.25.14.45s-.04.35-.14.45c-.1.1-.22.16-.4.16-.17 0-.3-.05-.4-.16a.66.66 0 0 1-.14-.45Zm4.88 0c0-.2.05-.34.14-.45.1-.1.23-.15.4-.15s.3.05.4.15c.1.1.14.25.14.45s-.04.35-.14.45c-.1.1-.22.16-.4.16-.17 0-.3-.05-.4-.16a.66.66 0 0 1-.14-.45Zm4.88 0c0-.2.05-.34.14-.45.1-.1.23-.15.4-.15s.3.05.4.15c.1.1.14.25.14.45s-.04.35-.14.45c-.1.1-.22.16-.4.16-.17 0-.3-.05-.4-.16a.66.66 0 0 1-.14-.45Zm4.88 0c0-.2.05-.34.14-.45.1-.1.23-.15.4-.15s.3.05.4.15c.1.1.14.25.14.45s-.05.35-.14.45c-.1.1-.22.16-.4.16-.17 0-.3-.05-.4-.16a.66.66 0 0 1-.14-.45ZM.4 1.17C.4.97.45.83.54.72.63.62.76.57.94.57c.17 0 .3.05.4.15.1.1.14.25.14.45s-.05.35-.14.45c-.1.1-.23.16-.4.16s-.3-.05-.4-.16a.66.66 0 0 1-.14-.45Zm4.88 0c0-.2.05-.34.14-.45.09-.1.22-.15.4-.15.17 0 .3.05.4.15.1.1.14.25.14.45s-.05.35-.14.45c-.1.1-.23.16-.4.16s-.3-.05-.4-.16a.66.66 0 0 1-.14-.45Zm4.88 0c0-.2.05-.34.14-.45.09-.1.22-.15.4-.15.17 0 .3.05.4.15.1.1.14.25.14.45s-.05.35-.14.45c-.1.1-.23.16-.4.16s-.3-.05-.4-.16a.66.66 0 0 1-.14-.45Zm4.88 0c0-.2.05-.34.14-.45.09-.1.22-.15.4-.15.17 0 .3.05.4.15.1.1.14.25.14.45s-.05.35-.14.45c-.1.1-.23.16-.4.16s-.3-.05-.4-.16a.66.66 0 0 1-.14-.45Zm4.88 0c0-.2.05-.34.14-.45.09-.1.22-.15.4-.15.17 0 .3.05.4.15.1.1.14.25.14.45s-.05.35-.14.45c-.1.1-.23.16-.4.16s-.3-.05-.4-.16a.66.66 0 0 1-.14-.45Zm4.88 0c0-.2.05-.34.14-.45.09-.1.22-.15.4-.15.17 0 .3.05.4.15.1.1.14.25.14.45s-.05.35-.14.45c-.1.1-.23.16-.4.16s-.3-.05-.4-.16a.66.66 0 0 1-.14-.45Zm4.88 0c0-.2.05-.34.14-.45.09-.1.22-.15.4-.15.17 0 .3.05.4.15.1.1.14.25.14.45s-.05.35-.14.45c-.1.1-.23.16-.4.16s-.3-.05-.4-.16a.66.66 0 0 1-.14-.45Zm4.88 0c0-.2.05-.34.14-.45.09-.1.22-.15.4-.15.17 0 .3.05.4.15.1.1.14.25.14.45s-.05.35-.14.45c-.1.1-.23.16-.4.16-.18 0-.3-.05-.4-.16a.66.66 0 0 1-.14-.45Zm4.88 0c0-.2.05-.34.14-.45.09-.1.22-.15.4-.15.17 0 .3.05.4.15.1.1.14.25.14.45s-.05.35-.14.45c-.1.1-.23.16-.4.16-.18 0-.3-.05-.4-.16a.66.66 0 0 1-.14-.45Zm4.88 0c0-.2.04-.34.14-.45.09-.1.22-.15.4-.15.17 0 .3.05.4.15.1.1.14.25.14.45s-.05.35-.14.45c-.1.1-.23.16-.4.16-.18 0-.3-.05-.4-.16a.66.66 0 0 1-.14-.45Zm4.88 0c0-.2.04-.34.14-.45.09-.1.22-.15.4-.15.17 0 .3.05.4.15.1.1.14.25.14.45s-.05.35-.14.45c-.1.1-.23.16-.4.16-.18 0-.3-.05-.4-.16a.66.66 0 0 1-.14-.45Zm4.88 0c0-.2.04-.34.14-.45.09-.1.22-.15.4-.15.17 0 .3.05.4.15.1.1.14.25.14.45s-.05.35-.14.45c-.1.1-.23.16-.4.16-.18 0-.3-.05-.4-.16a.66.66 0 0 1-.14-.45Zm4.88 0c0-.2.04-.34.14-.45.09-.1.22-.15.4-.15.17 0 .3.05.4.15.1.1.14.25.14.45s-.05.35-.14.45c-.1.1-.23.16-.4.16-.18 0-.3-.05-.4-.16a.66.66 0 0 1-.14-.45Zm4.88 0c0-.2.04-.34.14-.45.09-.1.22-.15.4-.15.17 0 .3.05.4.15.1.1.14.25.14.45s-.05.35-.14.45c-.1.1-.23.16-.4.16-.18 0-.3-.05-.4-.16a.66.66 0 0 1-.14-.45Zm4.88 0c0-.2.04-.34.14-.45.09-.1.22-.15.4-.15.17 0 .3.05.4.15.1.1.14.25.14.45s-.05.35-.14.45c-.1.1-.23.16-.4.16-.18 0-.3-.05-.4-.16a.66.66 0 0 1-.14-.45Zm4.88 0c0-.2.04-.34.14-.45.09-.1.22-.15.4-.15.17 0 .3.05.4.15.09.1.14.25.14.45s-.05.35-.14.45c-.1.1-.23.16-.4.16-.18 0-.3-.05-.4-.16a.66.66 0 0 1-.14-.45Zm4.88 0c0-.2.04-.34.14-.45.09-.1.22-.15.4-.15.17 0 .3.05.4.15.09.1.14.25.14.45s-.05.35-.14.45c-.1.1-.23.16-.4.16-.18 0-.31-.05-.4-.16a.66.66 0 0 1-.14-.45Zm4.88 0c0-.2.04-.34.14-.45.09-.1.22-.15.4-.15.17 0 .3.05.4.15.09.1.14.25.14.45s-.05.35-.14.45c-.1.1-.23.16-.4.16-.18 0-.31-.05-.4-.16a.66.66 0 0 1-.14-.45Zm4.88 0c0-.2.04-.34.14-.45.09-.1.22-.15.4-.15.17 0 .3.05.4.15.09.1.14.25.14.45s-.05.35-.14.45c-.1.1-.23.16-.4.16-.18 0-.31-.05-.4-.16a.66.66 0 0 1-.14-.45Zm4.88 0c0-.2.04-.34.13-.45.1-.1.23-.15.4-.15.18 0 .31.05.4.15.1.1.15.25.15.45s-.05.35-.14.45c-.1.1-.23.16-.4.16-.18 0-.31-.05-.4-.16a.66.66 0 0 1-.14-.45Zm4.88 0c0-.2.04-.34.13-.45.1-.1.23-.15.4-.15.18 0 .31.05.4.15.1.1.15.25.15.45s-.05.35-.14.45c-.1.1-.23.16-.4.16-.18 0-.31-.05-.4-.16a.66.66 0 0 1-.14-.45Zm4.88 0c0-.2.04-.34.14-.45.09-.1.22-.15.4-.15.17 0 .3.05.4.15.09.1.14.25.14.45s-.05.35-.14.45c-.1.1-.23.16-.4.16-.18 0-.31-.05-.4-.16a.66.66 0 0 1-.14-.45Zm4.88 0c0-.2.04-.34.13-.45.1-.1.23-.15.4-.15.18 0 .31.05.4.15.1.1.15.25.15.45s-.05.35-.15.45c-.09.1-.22.16-.4.16-.17 0-.3-.05-.4-.16a.66.66 0 0 1-.13-.45Zm4.88 0c0-.2.04-.34.13-.45.1-.1.23-.15.4-.15.18 0 .31.05.4.15.1.1.15.25.15.45s-.05.35-.14.45c-.1.1-.23.16-.4.16-.18 0-.31-.05-.4-.16a.66.66 0 0 1-.14-.45Zm4.88 0c0-.2.04-.34.13-.45.1-.1.23-.15.4-.15.18 0 .31.05.4.15.1.1.15.25.15.45s-.05.35-.14.45c-.1.1-.23.16-.4.16-.18 0-.31-.05-.4-.16a.66.66 0 0 1-.14-.45Zm4.88 0c0-.2.04-.34.13-.45.1-.1.23-.15.4-.15.18 0 .31.05.4.15.1.1.15.25.15.45s-.05.35-.15.45c-.09.1-.22.16-.4.16-.17 0-.3-.05-.4-.16a.66.66 0 0 1-.13-.45Zm4.88 0c0-.2.04-.34.13-.45.1-.1.23-.15.4-.15.18 0 .31.05.4.15.1.1.15.25.15.45s-.05.35-.15.45c-.09.1-.22.16-.4.16-.17 0-.3-.05-.4-.16a.66.66 0 0 1-.13-.45Zm4.88 0c0-.2.04-.34.13-.45.1-.1.23-.15.4-.15.18 0 .31.05.4.15.1.1.15.25.15.45s-.05.35-.15.45c-.09.1-.22.16-.4.16-.17 0-.3-.05-.4-.16a.67.67 0 0 1-.13-.45Zm4.88 0c0-.2.04-.34.13-.45.1-.1.23-.15.4-.15.18 0 .31.05.4.15.1.1.15.25.15.45s-.05.35-.15.45c-.09.1-.22.16-.4.16-.17 0-.3-.05-.4-.16a.66.66 0 0 1-.13-.45Zm4.88 0c0-.2.04-.34.13-.45.1-.1.23-.15.4-.15.18 0 .31.05.4.15.1.1.15.25.15.45s-.05.35-.15.45c-.09.1-.22.16-.4.16-.17 0-.3-.05-.4-.16a.66.66 0 0 1-.13-.45Zm4.88 0c0-.2.04-.34.13-.45.1-.1.23-.15.4-.15.18 0 .31.05.4.15.1.1.15.25.15.45s-.05.35-.15.45c-.09.1-.22.16-.4.16-.17 0-.3-.05-.4-.16a.66.66 0 0 1-.13-.45Zm4.88 0c0-.2.04-.34.13-.45.1-.1.23-.15.4-.15.18 0 .31.05.4.15.1.1.15.25.15.45s-.05.35-.15.45c-.09.1-.22.16-.4.16-.17 0-.3-.05-.4-.16a.66.66 0 0 1-.13-.45Zm4.88 0c0-.2.04-.34.13-.45.1-.1.23-.15.4-.15.18 0 .31.05.4.15.1.1.15.25.15.45s-.05.35-.15.45c-.09.1-.22.16-.4.16-.17 0-.3-.05-.4-.16a.66.66 0 0 1-.13-.45Zm4.88 0c0-.2.04-.34.13-.45.1-.1.23-.15.4-.15.18 0 .31.05.4.15.1.1.15.25.15.45s-.05.35-.15.45c-.09.1-.22.16-.4.16-.17 0-.3-.05-.4-.16a.66.66 0 0 1-.13-.45Zm4.88 0c0-.2.04-.34.13-.45.1-.1.23-.15.4-.15.18 0 .31.05.4.15.1.1.15.25.15.45s-.05.35-.15.45c-.09.1-.22.16-.4.16-.17 0-.3-.05-.4-.16a.66.66 0 0 1-.13-.45Zm4.88 0c0-.2.04-.34.13-.45.1-.1.23-.15.4-.15.18 0 .3.05.4.15.1.1.15.25.15.45s-.05.35-.15.45c-.09.1-.22.16-.4.16-.17 0-.3-.05-.4-.16a.67.67 0 0 1-.13-.45Zm4.88 0c0-.2.04-.34.13-.45.1-.1.23-.15.4-.15.18 0 .3.05.4.15.1.1.15.25.15.45s-.05.35-.15.45c-.09.1-.22.16-.4.16-.17 0-.3-.05-.4-.16a.67.67 0 0 1-.13-.45Zm4.88 0c0-.2.04-.34.13-.45.1-.1.23-.15.4-.15.18 0 .3.05.4.15.1.1.15.25.15.45s-.05.35-.15.45c-.09.1-.22.16-.4.16-.17 0-.3-.05-.4-.16a.66.66 0 0 1-.13-.45Zm4.88 0c0-.2.04-.34.13-.45.1-.1.23-.15.4-.15.18 0 .3.05.4.15.1.1.14.25.14.45s-.04.35-.14.45c-.09.1-.22.16-.4.16-.17 0-.3-.05-.4-.16a.66.66 0 0 1-.13-.45Zm4.88 0c0-.2.04-.34.13-.45.1-.1.23-.15.4-.15.18 0 .3.05.4.15.1.1.14.25.14.45s-.04.35-.14.45c-.09.1-.22.16-.4.16-.17 0-.3-.05-.4-.16a.66.66 0 0 1-.13-.45Zm4.88 0c0-.2.04-.34.13-.45.1-.1.23-.15.4-.15.18 0 .3.05.4.15.1.1.15.25.15.45s-.05.35-.15.45c-.09.1-.22.16-.4.16-.17 0-.3-.05-.4-.16a.66.66 0 0 1-.13-.45Zm4.88 0c0-.2.04-.34.13-.45.1-.1.23-.15.4-.15.18 0 .3.05.4.15.1.1.15.25.15.45s-.05.35-.15.45c-.09.1-.22.16-.4.16-.17 0-.3-.05-.4-.16a.66.66 0 0 1-.13-.45Zm4.88 0c0-.2.04-.34.13-.45.1-.1.23-.15.4-.15.18 0 .3.05.4.15.1.1.15.25.15.45s-.05.35-.15.45c-.09.1-.22.16-.4.16-.17 0-.3-.05-.4-.16a.66.66 0 0 1-.14-.45Zm4.88 0c0-.2.04-.34.13-.45.1-.1.23-.15.4-.15.18 0 .3.05.4.15.1.1.14.25.14.45s-.04.35-.14.45c-.09.1-.22.16-.4.16-.17 0-.3-.05-.4-.16a.66.66 0 0 1-.13-.45Zm4.88 0c0-.2.04-.34.13-.45.1-.1.23-.15.4-.15.18 0 .3.05.4.15.1.1.14.25.14.45s-.04.35-.14.45c-.09.1-.22.16-.4.16-.17 0-.3-.05-.4-.16a.67.67 0 0 1-.13-.45Zm4.88 0c0-.2.04-.34.13-.45.1-.1.23-.15.4-.15.18 0 .3.05.4.15.1.1.14.25.14.45s-.04.35-.14.45c-.09.1-.22.16-.4.16-.17 0-.3-.05-.4-.16a.67.67 0 0 1-.13-.45Zm4.88 0c0-.2.04-.34.13-.45.1-.1.23-.15.4-.15.18 0 .3.05.4.15.1.1.14.25.14.45s-.04.35-.14.45c-.09.1-.22.16-.4.16-.17 0-.3-.05-.4-.16a.66.66 0 0 1-.13-.45Zm4.88 0c0-.2.04-.34.13-.45.1-.1.23-.15.4-.15.18 0 .3.05.4.15.1.1.14.25.14.45s-.04.35-.14.45c-.09.1-.22.16-.4.16-.17 0-.3-.05-.4-.16a.66.66 0 0 1-.13-.45Zm4.88 0c0-.2.04-.34.13-.45.1-.1.23-.15.4-.15.18 0 .3.05.4.15.1.1.14.25.14.45s-.04.35-.14.45c-.1.1-.22.16-.4.16-.17 0-.3-.05-.4-.16a.66.66 0 0 1-.14-.45Zm4.88 0c0-.2.04-.34.13-.45.1-.1.23-.15.4-.15s.3.05.4.15c.1.1.14.25.14.45s-.04.35-.14.45c-.1.1-.22.16-.4.16-.17 0-.3-.05-.4-.16a.66.66 0 0 1-.14-.45Z"/></svg>
