<svg width="14" height="15" viewBox="0 0 14 15" fill="none" xmlns="http://www.w3.org/2000/svg">
<ellipse cx="7" cy="7.5" rx="7" ry="7.5" fill="#FF862F"/>
<path d="M9.49512 7.43066C9.49512 8.67741 9.29004 9.60026 8.87988 10.1992C8.47298 10.7982 7.84473 11.0977 6.99512 11.0977C6.17155 11.0977 5.5498 10.7884 5.12988 10.1699C4.71322 9.55143 4.50488 8.63835 4.50488 7.43066C4.50488 6.1709 4.70833 5.24316 5.11523 4.64746C5.52214 4.0485 6.14876 3.74902 6.99512 3.74902C7.81868 3.74902 8.44043 4.06152 8.86035 4.68652C9.28353 5.31152 9.49512 6.22624 9.49512 7.43066ZM6.00391 7.43066C6.00391 8.30632 6.07878 8.93457 6.22852 9.31543C6.38151 9.69303 6.63704 9.88184 6.99512 9.88184C7.34668 9.88184 7.60059 9.68978 7.75684 9.30566C7.91309 8.92155 7.99121 8.29655 7.99121 7.43066C7.99121 6.55501 7.91146 5.92676 7.75195 5.5459C7.5957 5.16178 7.34342 4.96973 6.99512 4.96973C6.6403 4.96973 6.38639 5.16178 6.2334 5.5459C6.0804 5.92676 6.00391 6.55501 6.00391 7.43066Z" fill="white"/>
</svg>
